<svg xmlns="http://www.w3.org/2000/svg" xmlns:xlink="http://www.w3.org/1999/xlink" style="vertical-align:-.255ex" width="4.099ex" height="2.634ex" viewBox="0 -1024.6 1764.6 1134.2"><defs><path id="a" stroke-width="1" d="M327 0q-21 3-153 3Q52 3 43 0H33v62h65l64 1 198 270-203 291H48v62h11q21-3 158-3 151 0 178 3h13v-62h-73l58-84 59-82 121 165q0 1-45 1h-45v62h11q21-3 152-3 123 0 132 3h9v-62H658l-83-113q-82-113-82-114l15-21q14-20 45-64t58-83L727 62h108V0h-11q-21 3-157 3-151 0-178-3h-13v62h37l36 1-148 211L247 63q0-1 45-1h46V0h-11z"/><path id="b" stroke-width="1" d="M94 250q0 69 10 131t23 107 37 88 38 67 42 52 33 34 25 21h17q14 0 14-9 0-3-17-21t-41-53-49-86-42-138-17-193 17-192 41-139 49-86 42-53 17-21q0-9-15-9h-16l-28 24q-94 85-137 212T94 250z"/><path id="c" stroke-width="1" d="M184 600q0 24 19 42t44 19q18 0 30-12t13-30q0-23-20-42t-44-20q-15 0-28 10t-14 33zM21 287q0 8 9 31t24 51 44 51 60 22q39 0 65-23t27-62q0-17-14-56t-40-105-42-113q-5-22-5-32 0-25 17-25 9 0 19 3t23 14 27 35 25 59q3 12 5 14t17 2q20 0 20-10 0-8-9-31t-25-51-45-50-62-22q-32 0-59 21T74 74q0 17 5 32t43 114q38 101 44 121t7 39q0 24-17 24h-2q-30 0-55-33t-38-84q-1-1-2-3t-1-3-2-2-3-1-4 0-8 0H27q-6 6-6 9z"/><path id="d" stroke-width="1" d="M60 749l4 1h22l28-24q94-85 137-212t43-264q0-68-10-131T261 12t-37-88-38-67-41-51-32-33-23-19l-4-4H63q-3 0-5 3t-3 9q1 1 11 13Q221-64 221 250T66 725q-10 12-11 13 0 8 5 11z"/></defs><g fill="currentColor" stroke="currentColor" stroke-width="0" transform="scale(1 -1)"><use xlink:href="#a"/><g transform="matrix(.707 0 0 .707 869 413)"><use xlink:href="#b"/><use x="389" xlink:href="#c"/><use x="734" xlink:href="#d"/></g></g></svg>